<svg version="1.1" id="style1-svg" xmlns="http://www.w3.org/2000/svg" xmlns:xlink="http://www.w3.org/1999/xlink" x="0px" y="0px" width="400" height="400" viewBox="0 0 400 400" style="enable-background:new 0 0 400 400;" xml:space="preserve"><style type="text/css">            .frame-color {                fill: #000000;            }            .background-color {                fill: #FFFFFF;            }            .text-color {                fill: #FFFFFF;            }        </style><rect x="51.8" y="12.1" class="background-color" width="297.9" height="297.9"></rect><path class="frame-color" d="M55.4,400h290.5c8.8,0,15.8-7.2,15.8-15.8V15.8C361.7,7,354.6,0,345.9,0H55.5c-8.8,0-15.8,7.2-15.9,15.8v368.4C39.6,393,46.8,400,55.4,400z M51.8,20.7c0-4.7,3.8-8.5,8.5-8.5H341c4.7,0,8.5,3.8,8.5,8.5v280.8c0,4.7-3.8,8.5-8.5,8.5H60.4c-4.7,0-8.5-3.8-8.5-8.5V20.7z"></path><path class="text-color" d="M103,369.5c5.3-0.1,8.1-2,8.1-5.8c0-3.1-1.7-4.8-5.3-5.5c-1.6-0.2-3.5-0.5-5.4-0.8c-3.6-0.6-6.2-1.8-8.1-3.9c-1.8-2.1-2.9-4.6-2.9-7.6c0-3.6,1.2-6.5,3.6-8.7c2.3-2.2,5.5-3.2,9.8-3.3c5.1,0.1,9.6,1.5,13.3,4.3l-3.5,5.1c-3.1-2.1-6.5-3.1-10.2-3.1c-2,0-3.5,0.5-4.8,1.4c-1.4,1-2.1,2.4-2.1,4.5c0,1.2,0.5,2.3,1.4,3.2c0.9,0.9,2.4,1.6,4.4,2.1c1.2,0.2,2.7,0.5,4.6,0.7c3.8,0.6,6.7,2,8.5,4.2c1.8,2.2,2.8,4.7,2.8,7.6c-0.2,7.8-5,11.9-14.4,12c-6.1,0-11.3-1.8-15.7-5.7l4-4.7C94.5,368.1,98.5,369.5,103,369.5z M151.4,364c-0.9,3.8-2.7,6.7-5.2,8.8c-2.7,2.1-5.7,3-9.2,3c-3.2-0.1-5.9-0.8-8.1-2.4c-2.2-1.5-3.8-3.1-4.8-5c-0.3-0.6-0.6-1.2-0.8-1.7c-0.2-0.6-0.5-1.3-0.6-2.2c-0.2-1.6-0.5-4.8-0.5-9.6c0-4.7,0.1-8,0.5-9.6c0.3-1.6,0.8-2.9,1.4-3.9c1-1.8,2.5-3.6,4.8-5.1c2.2-1.5,4.8-2.3,8.1-2.3c3.9,0,7.2,1.2,9.7,3.6c2.5,2.3,4,5.2,4.7,8.7h-6.6c-0.5-1.6-1.4-3.1-2.8-4.3c-1.4-1.2-3.1-1.7-5.1-1.7c-1.5,0-2.8,0.3-3.8,0.9c-1,0.6-2,1.3-2.5,2.1c-0.8,0.9-1.4,2.1-1.6,3.5c-0.3,1.5-0.5,4.3-0.5,8.3c0,4,0.1,6.8,0.5,8.2c0.2,1.4,0.8,2.5,1.6,3.5c0.7,0.8,1.5,1.5,2.5,2.1c1,0.6,2.3,0.9,3.8,0.9c3.5,0,6.1-1.8,7.8-5.7L151.4,364L151.4,364z M177.1,366.3h-15.6l-3.1,9.2h-6.6l14.9-41.1h5.2l14.9,41.1h-6.6L177.1,366.3z M175.1,360.8l-6-18H169l-6,18H175.1z M191,334.3h5.9l18.6,29.2h0.1v-29.2h6.2v41.1h-5.9l-18.5-29.2h-0.1v29.2h-6.2v-41.1H191z M244.3,334.3h5.9l11.8,26.8l11.5-26.8h5.9v41.1h-6.2v-25.6h-0.1l-8.5,19.7h-5.2l-8.5-19.7l0,0v25.6h-6.2v-41.1H244.3z M288.1,334.3h26.2v5.9h-20V352h17.1v5.5h-17.1v12h20v5.9h-26.2V334.3z"></path><g class="addsvg"><svg version="1.1" baseProfile="tiny" xmlns="http://www.w3.org/2000/svg" width="400" height="400" x="0" y="0" viewBox="0 0 400 400"><rect xmlns="http://www.w3.org/2000/svg" shape-rendering="optimizeSpeed" width="400" height="400" fill="#fff" x="0" y="0"></rect><rect shape-rendering="optimizeSpeed" fill="#000" x="10" y="10" width="11.615151515151515" height="11.615151515151515"></rect><rect shape-rendering="optimizeSpeed" fill="#000" x="21.515151515151516" y="10" width="11.615151515151515" height="11.615151515151515"></rect><rect shape-rendering="optimizeSpeed" fill="#000" x="33.03030303030303" y="10" width="11.615151515151515" height="11.615151515151515"></rect><rect shape-rendering="optimizeSpeed" fill="#000" x="44.54545454545455" y="10" width="11.615151515151515" height="11.615151515151515"></rect><rect shape-rendering="optimizeSpeed" fill="#000" x="56.06060606060606" y="10" width="11.615151515151515" height="11.615151515151515"></rect><rect shape-rendering="optimizeSpeed" fill="#000" x="67.57575757575758" y="10" width="11.615151515151515" height="11.615151515151515"></rect><rect shape-rendering="optimizeSpeed" fill="#000" x="79.0909090909091" y="10" width="11.615151515151515" height="11.615151515151515"></rect><rect shape-rendering="optimizeSpeed" fill="#000" x="125.15151515151516" y="10" width="11.615151515151515" height="11.615151515151515"></rect><rect shape-rendering="optimizeSpeed" fill="#000" x="182.72727272727275" y="10" width="11.615151515151515" height="11.615151515151515"></rect><rect shape-rendering="optimizeSpeed" fill="#000" x="194.24242424242425" y="10" width="11.615151515151515" height="11.615151515151515"></rect><rect shape-rendering="optimizeSpeed" fill="#000" x="217.27272727272728" y="10" width="11.615151515151515" height="11.615151515151515"></rect><rect shape-rendering="optimizeSpeed" fill="#000" x="228.7878787878788" y="10" width="11.615151515151515" height="11.615151515151515"></rect><rect shape-rendering="optimizeSpeed" fill="#000" x="263.33333333333337" y="10" width="11.615151515151515" height="11.615151515151515"></rect><rect shape-rendering="optimizeSpeed" fill="#000" x="309.3939393939394" y="10" width="11.615151515151515" height="11.615151515151515"></rect><rect shape-rendering="optimizeSpeed" fill="#000" x="320.90909090909093" y="10" width="11.615151515151515" height="11.615151515151515"></rect><rect shape-rendering="optimizeSpeed" fill="#000" x="332.42424242424244" y="10" width="11.615151515151515" height="11.615151515151515"></rect><rect shape-rendering="optimizeSpeed" fill="#000" x="343.93939393939394" y="10" width="11.615151515151515" height="11.615151515151515"></rect><rect shape-rendering="optimizeSpeed" fill="#000" x="355.4545454545455" y="10" width="11.615151515151515" height="11.615151515151515"></rect><rect shape-rendering="optimizeSpeed" fill="#000" x="366.969696969697" y="10" width="11.615151515151515" height="11.615151515151515"></rect><rect shape-rendering="optimizeSpeed" fill="#000" x="378.4848484848485" y="10" width="11.615151515151515" height="11.615151515151515"></rect><rect shape-rendering="optimizeSpeed" fill="#000" x="10" y="21.515151515151516" width="11.615151515151515" height="11.615151515151515"></rect><rect shape-rendering="optimizeSpeed" fill="#000" x="79.0909090909091" y="21.515151515151516" width="11.615151515151515" height="11.615151515151515"></rect><rect shape-rendering="optimizeSpeed" fill="#000" x="102.12121212121212" y="21.515151515151516" width="11.615151515151515" height="11.615151515151515"></rect><rect shape-rendering="optimizeSpeed" fill="#000" x="113.63636363636364" y="21.515151515151516" width="11.615151515151515" height="11.615151515151515"></rect><rect shape-rendering="optimizeSpeed" fill="#000" x="125.15151515151516" y="21.515151515151516" width="11.615151515151515" height="11.615151515151515"></rect><rect shape-rendering="optimizeSpeed" fill="#000" x="159.6969696969697" y="21.515151515151516" width="11.615151515151515" height="11.615151515151515"></rect><rect shape-rendering="optimizeSpeed" fill="#000" x="182.72727272727275" y="21.515151515151516" width="11.615151515151515" height="11.615151515151515"></rect><rect shape-rendering="optimizeSpeed" fill="#000" x="194.24242424242425" y="21.515151515151516" width="11.615151515151515" height="11.615151515151515"></rect><rect shape-rendering="optimizeSpeed" fill="#000" x="263.33333333333337" y="21.515151515151516" width="11.615151515151515" height="11.615151515151515"></rect><rect shape-rendering="optimizeSpeed" fill="#000" x="274.8484848484849" y="21.515151515151516" width="11.615151515151515" height="11.615151515151515"></rect><rect shape-rendering="optimizeSpeed" fill="#000" x="286.3636363636364" y="21.515151515151516" width="11.615151515151515" height="11.615151515151515"></rect><rect shape-rendering="optimizeSpeed" fill="#000" x="309.3939393939394" y="21.515151515151516" width="11.615151515151515" height="11.615151515151515"></rect><rect shape-rendering="optimizeSpeed" fill="#000" x="378.4848484848485" y="21.515151515151516" width="11.615151515151515" height="11.615151515151515"></rect><rect shape-rendering="optimizeSpeed" fill="#000" x="10" y="33.03030303030303" width="11.615151515151515" height="11.615151515151515"></rect><rect shape-rendering="optimizeSpeed" fill="#000" x="33.03030303030303" y="33.03030303030303" width="11.615151515151515" height="11.615151515151515"></rect><rect shape-rendering="optimizeSpeed" fill="#000" x="44.54545454545455" y="33.03030303030303" width="11.615151515151515" height="11.615151515151515"></rect><rect shape-rendering="optimizeSpeed" fill="#000" x="56.06060606060606" y="33.03030303030303" width="11.615151515151515" height="11.615151515151515"></rect><rect shape-rendering="optimizeSpeed" fill="#000" x="79.0909090909091" y="33.03030303030303" width="11.615151515151515" height="11.615151515151515"></rect><rect shape-rendering="optimizeSpeed" fill="#000" x="102.12121212121212" y="33.03030303030303" width="11.615151515151515" height="11.615151515151515"></rect><rect shape-rendering="optimizeSpeed" fill="#000" x="194.24242424242425" y="33.03030303030303" width="11.615151515151515" height="11.615151515151515"></rect><rect shape-rendering="optimizeSpeed" fill="#000" x="205.75757575757575" y="33.03030303030303" width="11.615151515151515" height="11.615151515151515"></rect><rect shape-rendering="optimizeSpeed" fill="#000" x="217.27272727272728" y="33.03030303030303" width="11.615151515151515" height="11.615151515151515"></rect><rect shape-rendering="optimizeSpeed" fill="#000" x="240.3030303030303" y="33.03030303030303" width="11.615151515151515" height="11.615151515151515"></rect><rect shape-rendering="optimizeSpeed" fill="#000" x="274.8484848484849" y="33.03030303030303" width="11.615151515151515" height="11.615151515151515"></rect><rect shape-rendering="optimizeSpeed" fill="#000" x="309.3939393939394" y="33.03030303030303" width="11.615151515151515" height="11.615151515151515"></rect><rect shape-rendering="optimizeSpeed" fill="#000" x="332.42424242424244" y="33.03030303030303" width="11.615151515151515" height="11.615151515151515"></rect><rect shape-rendering="optimizeSpeed" fill="#000" x="343.93939393939394" y="33.03030303030303" width="11.615151515151515" height="11.615151515151515"></rect><rect shape-rendering="optimizeSpeed" fill="#000" x="355.4545454545455" y="33.03030303030303" width="11.615151515151515" height="11.615151515151515"></rect><rect shape-rendering="optimizeSpeed" fill="#000" x="378.4848484848485" y="33.03030303030303" width="11.615151515151515" height="11.615151515151515"></rect><rect shape-rendering="optimizeSpeed" fill="#000" x="10" y="44.54545454545455" width="11.615151515151515" height="11.615151515151515"></rect><rect shape-rendering="optimizeSpeed" fill="#000" x="33.03030303030303" y="44.54545454545455" width="11.615151515151515" height="11.615151515151515"></rect><rect shape-rendering="optimizeSpeed" fill="#000" x="44.54545454545455" y="44.54545454545455" width="11.615151515151515" height="11.615151515151515"></rect><rect shape-rendering="optimizeSpeed" fill="#000" x="56.06060606060606" y="44.54545454545455" width="11.615151515151515" height="11.615151515151515"></rect><rect shape-rendering="optimizeSpeed" fill="#000" x="79.0909090909091" y="44.54545454545455" width="11.615151515151515" height="11.615151515151515"></rect><rect shape-rendering="optimizeSpeed" fill="#000" x="113.63636363636364" y="44.54545454545455" width="11.615151515151515" height="11.615151515151515"></rect><rect shape-rendering="optimizeSpeed" fill="#000" x="148.1818181818182" y="44.54545454545455" width="11.615151515151515" height="11.615151515151515"></rect><rect shape-rendering="optimizeSpeed" fill="#000" x="182.72727272727275" y="44.54545454545455" width="11.615151515151515" height="11.615151515151515"></rect><rect shape-rendering="optimizeSpeed" fill="#000" x="194.24242424242425" y="44.54545454545455" width="11.615151515151515" height="11.615151515151515"></rect><rect shape-rendering="optimizeSpeed" fill="#000" x="217.27272727272728" y="44.54545454545455" width="11.615151515151515" height="11.615151515151515"></rect><rect shape-rendering="optimizeSpeed" fill="#000" x="228.7878787878788" y="44.54545454545455" width="11.615151515151515" height="11.615151515151515"></rect><rect shape-rendering="optimizeSpeed" fill="#000" x="251.8181818181818" y="44.54545454545455" width="11.615151515151515" height="11.615151515151515"></rect><rect shape-rendering="optimizeSpeed" fill="#000" x="263.33333333333337" y="44.54545454545455" width="11.615151515151515" height="11.615151515151515"></rect><rect shape-rendering="optimizeSpeed" fill="#000" x="274.8484848484849" y="44.54545454545455" width="11.615151515151515" height="11.615151515151515"></rect><rect shape-rendering="optimizeSpeed" fill="#000" x="309.3939393939394" y="44.54545454545455" width="11.615151515151515" height="11.615151515151515"></rect><rect shape-rendering="optimizeSpeed" fill="#000" x="332.42424242424244" y="44.54545454545455" width="11.615151515151515" height="11.615151515151515"></rect><rect shape-rendering="optimizeSpeed" fill="#000" x="343.93939393939394" y="44.54545454545455" width="11.615151515151515" height="11.615151515151515"></rect><rect shape-rendering="optimizeSpeed" fill="#000" x="355.4545454545455" y="44.54545454545455" width="11.615151515151515" height="11.615151515151515"></rect><rect shape-rendering="optimizeSpeed" fill="#000" x="378.4848484848485" y="44.54545454545455" width="11.615151515151515" height="11.615151515151515"></rect><rect shape-rendering="optimizeSpeed" fill="#000" x="10" y="56.06060606060606" width="11.615151515151515" height="11.615151515151515"></rect><rect shape-rendering="optimizeSpeed" fill="#000" x="33.03030303030303" y="56.06060606060606" width="11.615151515151515" height="11.615151515151515"></rect><rect shape-rendering="optimizeSpeed" fill="#000" x="44.54545454545455" y="56.06060606060606" width="11.615151515151515" height="11.615151515151515"></rect><rect shape-rendering="optimizeSpeed" fill="#000" x="56.06060606060606" y="56.06060606060606" width="11.615151515151515" height="11.615151515151515"></rect><rect shape-rendering="optimizeSpeed" fill="#000" x="79.0909090909091" y="56.06060606060606" width="11.615151515151515" height="11.615151515151515"></rect><rect shape-rendering="optimizeSpeed" fill="#000" x="102.12121212121212" y="56.06060606060606" width="11.615151515151515" height="11.615151515151515"></rect><rect shape-rendering="optimizeSpeed" fill="#000" x="113.63636363636364" y="56.06060606060606" width="11.615151515151515" height="11.615151515151515"></rect><rect shape-rendering="optimizeSpeed" fill="#000" x="125.15151515151516" y="56.06060606060606" width="11.615151515151515" height="11.615151515151515"></rect><rect shape-rendering="optimizeSpeed" fill="#000" x="148.1818181818182" y="56.06060606060606" width="11.615151515151515" height="11.615151515151515"></rect><rect shape-rendering="optimizeSpeed" fill="#000" x="159.6969696969697" y="56.06060606060606" width="11.615151515151515" height="11.615151515151515"></rect><rect shape-rendering="optimizeSpeed" fill="#000" x="182.72727272727275" y="56.06060606060606" width="11.615151515151515" height="11.615151515151515"></rect><rect shape-rendering="optimizeSpeed" fill="#000" x="217.27272727272728" y="56.06060606060606" width="11.615151515151515" height="11.615151515151515"></rect><rect shape-rendering="optimizeSpeed" fill="#000" x="263.33333333333337" y="56.06060606060606" width="11.615151515151515" height="11.615151515151515"></rect><rect shape-rendering="optimizeSpeed" fill="#000" x="309.3939393939394" y="56.06060606060606" width="11.615151515151515" height="11.615151515151515"></rect><rect shape-rendering="optimizeSpeed" fill="#000" x="332.42424242424244" y="56.06060606060606" width="11.615151515151515" height="11.615151515151515"></rect><rect shape-rendering="optimizeSpeed" fill="#000" x="343.93939393939394" y="56.06060606060606" width="11.615151515151515" height="11.615151515151515"></rect><rect shape-rendering="optimizeSpeed" fill="#000" x="355.4545454545455" y="56.06060606060606" width="11.615151515151515" height="11.615151515151515"></rect><rect shape-rendering="optimizeSpeed" fill="#000" x="378.4848484848485" y="56.06060606060606" width="11.615151515151515" height="11.615151515151515"></rect><rect shape-rendering="optimizeSpeed" fill="#000" x="10" y="67.57575757575758" width="11.615151515151515" height="11.615151515151515"></rect><rect shape-rendering="optimizeSpeed" fill="#000" x="79.0909090909091" y="67.57575757575758" width="11.615151515151515" height="11.615151515151515"></rect><rect shape-rendering="optimizeSpeed" fill="#000" x="102.12121212121212" y="67.57575757575758" width="11.615151515151515" height="11.615151515151515"></rect><rect shape-rendering="optimizeSpeed" fill="#000" x="125.15151515151516" y="67.57575757575758" width="11.615151515151515" height="11.615151515151515"></rect><rect shape-rendering="optimizeSpeed" fill="#000" x="148.1818181818182" y="67.57575757575758" width="11.615151515151515" height="11.615151515151515"></rect><rect shape-rendering="optimizeSpeed" fill="#000" x="182.72727272727275" y="67.57575757575758" width="11.615151515151515" height="11.615151515151515"></rect><rect shape-rendering="optimizeSpeed" fill="#000" x="205.75757575757575" y="67.57575757575758" width="11.615151515151515" height="11.615151515151515"></rect><rect shape-rendering="optimizeSpeed" fill="#000" x="228.7878787878788" y="67.57575757575758" width="11.615151515151515" height="11.615151515151515"></rect><rect shape-rendering="optimizeSpeed" fill="#000" x="240.3030303030303" y="67.57575757575758" width="11.615151515151515" height="11.615151515151515"></rect><rect shape-rendering="optimizeSpeed" fill="#000" x="251.8181818181818" y="67.57575757575758" width="11.615151515151515" height="11.615151515151515"></rect><rect shape-rendering="optimizeSpeed" fill="#000" x="263.33333333333337" y="67.57575757575758" width="11.615151515151515" height="11.615151515151515"></rect><rect shape-rendering="optimizeSpeed" fill="#000" x="309.3939393939394" y="67.57575757575758" width="11.615151515151515" height="11.615151515151515"></rect><rect shape-rendering="optimizeSpeed" fill="#000" x="378.4848484848485" y="67.57575757575758" width="11.615151515151515" height="11.615151515151515"></rect><rect shape-rendering="optimizeSpeed" fill="#000" x="10" y="79.0909090909091" width="11.615151515151515" height="11.615151515151515"></rect><rect shape-rendering="optimizeSpeed" fill="#000" x="21.515151515151516" y="79.0909090909091" width="11.615151515151515" height="11.615151515151515"></rect><rect shape-rendering="optimizeSpeed" fill="#000" x="33.03030303030303" y="79.0909090909091" width="11.615151515151515" height="11.615151515151515"></rect><rect shape-rendering="optimizeSpeed" fill="#000" x="44.54545454545455" y="79.0909090909091" width="11.615151515151515" height="11.615151515151515"></rect><rect shape-rendering="optimizeSpeed" fill="#000" x="56.06060606060606" y="79.0909090909091" width="11.615151515151515" height="11.615151515151515"></rect><rect shape-rendering="optimizeSpeed" fill="#000" x="67.57575757575758" y="79.0909090909091" width="11.615151515151515" height="11.615151515151515"></rect><rect shape-rendering="optimizeSpeed" fill="#000" x="79.0909090909091" y="79.0909090909091" width="11.615151515151515" height="11.615151515151515"></rect><rect shape-rendering="optimizeSpeed" fill="#000" x="102.12121212121212" y="79.0909090909091" width="11.615151515151515" height="11.615151515151515"></rect><rect shape-rendering="optimizeSpeed" fill="#000" x="125.15151515151516" y="79.0909090909091" width="11.615151515151515" height="11.615151515151515"></rect><rect shape-rendering="optimizeSpeed" fill="#000" x="148.1818181818182" y="79.0909090909091" width="11.615151515151515" height="11.615151515151515"></rect><rect shape-rendering="optimizeSpeed" fill="#000" x="171.21212121212122" y="79.0909090909091" width="11.615151515151515" height="11.615151515151515"></rect><rect shape-rendering="optimizeSpeed" fill="#000" x="194.24242424242425" y="79.0909090909091" width="11.615151515151515" height="11.615151515151515"></rect><rect shape-rendering="optimizeSpeed" fill="#000" x="217.27272727272728" y="79.0909090909091" width="11.615151515151515" height="11.615151515151515"></rect><rect shape-rendering="optimizeSpeed" fill="#000" x="240.3030303030303" y="79.0909090909091" width="11.615151515151515" height="11.615151515151515"></rect><rect shape-rendering="optimizeSpeed" fill="#000" x="263.33333333333337" y="79.0909090909091" width="11.615151515151515" height="11.615151515151515"></rect><rect shape-rendering="optimizeSpeed" fill="#000" x="286.3636363636364" y="79.0909090909091" width="11.615151515151515" height="11.615151515151515"></rect><rect shape-rendering="optimizeSpeed" fill="#000" x="309.3939393939394" y="79.0909090909091" width="11.615151515151515" height="11.615151515151515"></rect><rect shape-rendering="optimizeSpeed" fill="#000" x="320.90909090909093" y="79.0909090909091" width="11.615151515151515" height="11.615151515151515"></rect><rect shape-rendering="optimizeSpeed" fill="#000" x="332.42424242424244" y="79.0909090909091" width="11.615151515151515" height="11.615151515151515"></rect><rect shape-rendering="optimizeSpeed" fill="#000" x="343.93939393939394" y="79.0909090909091" width="11.615151515151515" height="11.615151515151515"></rect><rect shape-rendering="optimizeSpeed" fill="#000" x="355.4545454545455" y="79.0909090909091" width="11.615151515151515" height="11.615151515151515"></rect><rect shape-rendering="optimizeSpeed" fill="#000" x="366.969696969697" y="79.0909090909091" width="11.615151515151515" height="11.615151515151515"></rect><rect shape-rendering="optimizeSpeed" fill="#000" x="378.4848484848485" y="79.0909090909091" width="11.615151515151515" height="11.615151515151515"></rect><rect shape-rendering="optimizeSpeed" fill="#000" x="102.12121212121212" y="90.60606060606061" width="11.615151515151515" height="11.615151515151515"></rect><rect shape-rendering="optimizeSpeed" fill="#000" x="125.15151515151516" y="90.60606060606061" width="11.615151515151515" height="11.615151515151515"></rect><rect shape-rendering="optimizeSpeed" fill="#000" x="136.66666666666669" y="90.60606060606061" width="11.615151515151515" height="11.615151515151515"></rect><rect shape-rendering="optimizeSpeed" fill="#000" x="194.24242424242425" y="90.60606060606061" width="11.615151515151515" height="11.615151515151515"></rect><rect shape-rendering="optimizeSpeed" fill="#000" x="205.75757575757575" y="90.60606060606061" width="11.615151515151515" height="11.615151515151515"></rect><rect shape-rendering="optimizeSpeed" fill="#000" x="228.7878787878788" y="90.60606060606061" width="11.615151515151515" height="11.615151515151515"></rect><rect shape-rendering="optimizeSpeed" fill="#000" x="251.8181818181818" y="90.60606060606061" width="11.615151515151515" height="11.615151515151515"></rect><rect shape-rendering="optimizeSpeed" fill="#000" x="263.33333333333337" y="90.60606060606061" width="11.615151515151515" height="11.615151515151515"></rect><rect shape-rendering="optimizeSpeed" fill="#000" x="10" y="102.12121212121212" width="11.615151515151515" height="11.615151515151515"></rect><rect shape-rendering="optimizeSpeed" fill="#000" x="21.515151515151516" y="102.12121212121212" width="11.615151515151515" height="11.615151515151515"></rect><rect shape-rendering="optimizeSpeed" fill="#000" x="44.54545454545455" y="102.12121212121212" width="11.615151515151515" height="11.615151515151515"></rect><rect shape-rendering="optimizeSpeed" fill="#000" x="79.0909090909091" y="102.12121212121212" width="11.615151515151515" height="11.615151515151515"></rect><rect shape-rendering="optimizeSpeed" fill="#000" x="90.60606060606061" y="102.12121212121212" width="11.615151515151515" height="11.615151515151515"></rect><rect shape-rendering="optimizeSpeed" fill="#000" x="136.66666666666669" y="102.12121212121212" width="11.615151515151515" height="11.615151515151515"></rect><rect shape-rendering="optimizeSpeed" fill="#000" x="148.1818181818182" y="102.12121212121212" width="11.615151515151515" height="11.615151515151515"></rect><rect shape-rendering="optimizeSpeed" fill="#000" x="159.6969696969697" y="102.12121212121212" width="11.615151515151515" height="11.615151515151515"></rect><rect shape-rendering="optimizeSpeed" fill="#000" x="240.3030303030303" y="102.12121212121212" width="11.615151515151515" height="11.615151515151515"></rect><rect shape-rendering="optimizeSpeed" fill="#000" x="251.8181818181818" y="102.12121212121212" width="11.615151515151515" height="11.615151515151515"></rect><rect shape-rendering="optimizeSpeed" fill="#000" x="263.33333333333337" y="102.12121212121212" width="11.615151515151515" height="11.615151515151515"></rect><rect shape-rendering="optimizeSpeed" fill="#000" x="286.3636363636364" y="102.12121212121212" width="11.615151515151515" height="11.615151515151515"></rect><rect shape-rendering="optimizeSpeed" fill="#000" x="309.3939393939394" y="102.12121212121212" width="11.615151515151515" height="11.615151515151515"></rect><rect shape-rendering="optimizeSpeed" fill="#000" x="320.90909090909093" y="102.12121212121212" width="11.615151515151515" height="11.615151515151515"></rect><rect shape-rendering="optimizeSpeed" fill="#000" x="332.42424242424244" y="102.12121212121212" width="11.615151515151515" height="11.615151515151515"></rect><rect shape-rendering="optimizeSpeed" fill="#000" x="355.4545454545455" y="102.12121212121212" width="11.615151515151515" height="11.615151515151515"></rect><rect shape-rendering="optimizeSpeed" fill="#000" x="366.969696969697" y="102.12121212121212" width="11.615151515151515" height="11.615151515151515"></rect><rect shape-rendering="optimizeSpeed" fill="#000" x="21.515151515151516" y="113.63636363636364" width="11.615151515151515" height="11.615151515151515"></rect><rect shape-rendering="optimizeSpeed" fill="#000" x="33.03030303030303" y="113.63636363636364" width="11.615151515151515" height="11.615151515151515"></rect><rect shape-rendering="optimizeSpeed" fill="#000" x="44.54545454545455" y="113.63636363636364" width="11.615151515151515" height="11.615151515151515"></rect><rect shape-rendering="optimizeSpeed" fill="#000" x="56.06060606060606" y="113.63636363636364" width="11.615151515151515" height="11.615151515151515"></rect><rect shape-rendering="optimizeSpeed" fill="#000" x="67.57575757575758" y="113.63636363636364" width="11.615151515151515" height="11.615151515151515"></rect><rect shape-rendering="optimizeSpeed" fill="#000" x="102.12121212121212" y="113.63636363636364" width="11.615151515151515" height="11.615151515151515"></rect><rect shape-rendering="optimizeSpeed" fill="#000" x="113.63636363636364" y="113.63636363636364" width="11.615151515151515" height="11.615151515151515"></rect><rect shape-rendering="optimizeSpeed" fill="#000" x="136.66666666666669" y="113.63636363636364" width="11.615151515151515" height="11.615151515151515"></rect><rect shape-rendering="optimizeSpeed" fill="#000" x="148.1818181818182" y="113.63636363636364" width="11.615151515151515" height="11.615151515151515"></rect><rect shape-rendering="optimizeSpeed" fill="#000" x="159.6969696969697" y="113.63636363636364" width="11.615151515151515" height="11.615151515151515"></rect><rect shape-rendering="optimizeSpeed" fill="#000" x="171.21212121212122" y="113.63636363636364" width="11.615151515151515" height="11.615151515151515"></rect><rect shape-rendering="optimizeSpeed" fill="#000" x="205.75757575757575" y="113.63636363636364" width="11.615151515151515" height="11.615151515151515"></rect><rect shape-rendering="optimizeSpeed" fill="#000" x="274.8484848484849" y="113.63636363636364" width="11.615151515151515" height="11.615151515151515"></rect><rect shape-rendering="optimizeSpeed" fill="#000" x="286.3636363636364" y="113.63636363636364" width="11.615151515151515" height="11.615151515151515"></rect><rect shape-rendering="optimizeSpeed" fill="#000" x="297.8787878787879" y="113.63636363636364" width="11.615151515151515" height="11.615151515151515"></rect><rect shape-rendering="optimizeSpeed" fill="#000" x="309.3939393939394" y="113.63636363636364" width="11.615151515151515" height="11.615151515151515"></rect><rect shape-rendering="optimizeSpeed" fill="#000" x="343.93939393939394" y="113.63636363636364" width="11.615151515151515" height="11.615151515151515"></rect><rect shape-rendering="optimizeSpeed" fill="#000" x="378.4848484848485" y="113.63636363636364" width="11.615151515151515" height="11.615151515151515"></rect><rect shape-rendering="optimizeSpeed" fill="#000" x="67.57575757575758" y="125.15151515151516" width="11.615151515151515" height="11.615151515151515"></rect><rect shape-rendering="optimizeSpeed" fill="#000" x="79.0909090909091" y="125.15151515151516" width="11.615151515151515" height="11.615151515151515"></rect><rect shape-rendering="optimizeSpeed" fill="#000" x="90.60606060606061" y="125.15151515151516" width="11.615151515151515" height="11.615151515151515"></rect><rect shape-rendering="optimizeSpeed" fill="#000" x="136.66666666666669" y="125.15151515151516" width="11.615151515151515" height="11.615151515151515"></rect><rect shape-rendering="optimizeSpeed" fill="#000" x="148.1818181818182" y="125.15151515151516" width="11.615151515151515" height="11.615151515151515"></rect><rect shape-rendering="optimizeSpeed" fill="#000" x="159.6969696969697" y="125.15151515151516" width="11.615151515151515" height="11.615151515151515"></rect><rect shape-rendering="optimizeSpeed" fill="#000" x="194.24242424242425" y="125.15151515151516" width="11.615151515151515" height="11.615151515151515"></rect><rect shape-rendering="optimizeSpeed" fill="#000" x="228.7878787878788" y="125.15151515151516" width="11.615151515151515" height="11.615151515151515"></rect><rect shape-rendering="optimizeSpeed" fill="#000" x="263.33333333333337" y="125.15151515151516" width="11.615151515151515" height="11.615151515151515"></rect><rect shape-rendering="optimizeSpeed" fill="#000" x="297.8787878787879" y="125.15151515151516" width="11.615151515151515" height="11.615151515151515"></rect><rect shape-rendering="optimizeSpeed" fill="#000" x="343.93939393939394" y="125.15151515151516" width="11.615151515151515" height="11.615151515151515"></rect><rect shape-rendering="optimizeSpeed" fill="#000" x="378.4848484848485" y="125.15151515151516" width="11.615151515151515" height="11.615151515151515"></rect><rect shape-rendering="optimizeSpeed" fill="#000" x="21.515151515151516" y="136.66666666666669" width="11.615151515151515" height="11.615151515151515"></rect><rect shape-rendering="optimizeSpeed" fill="#000" x="44.54545454545455" y="136.66666666666669" width="11.615151515151515" height="11.615151515151515"></rect><rect shape-rendering="optimizeSpeed" fill="#000" x="56.06060606060606" y="136.66666666666669" width="11.615151515151515" height="11.615151515151515"></rect><rect shape-rendering="optimizeSpeed" fill="#000" x="113.63636363636364" y="136.66666666666669" width="11.615151515151515" height="11.615151515151515"></rect><rect shape-rendering="optimizeSpeed" fill="#000" x="125.15151515151516" y="136.66666666666669" width="11.615151515151515" height="11.615151515151515"></rect><rect shape-rendering="optimizeSpeed" fill="#000" x="136.66666666666669" y="136.66666666666669" width="11.615151515151515" height="11.615151515151515"></rect><rect shape-rendering="optimizeSpeed" fill="#000" x="148.1818181818182" y="136.66666666666669" width="11.615151515151515" height="11.615151515151515"></rect><rect shape-rendering="optimizeSpeed" fill="#000" x="159.6969696969697" y="136.66666666666669" width="11.615151515151515" height="11.615151515151515"></rect><rect shape-rendering="optimizeSpeed" fill="#000" x="171.21212121212122" y="136.66666666666669" width="11.615151515151515" height="11.615151515151515"></rect><rect shape-rendering="optimizeSpeed" fill="#000" x="182.72727272727275" y="136.66666666666669" width="11.615151515151515" height="11.615151515151515"></rect><rect shape-rendering="optimizeSpeed" fill="#000" x="194.24242424242425" y="136.66666666666669" width="11.615151515151515" height="11.615151515151515"></rect><rect shape-rendering="optimizeSpeed" fill="#000" x="217.27272727272728" y="136.66666666666669" width="11.615151515151515" height="11.615151515151515"></rect><rect shape-rendering="optimizeSpeed" fill="#000" x="228.7878787878788" y="136.66666666666669" width="11.615151515151515" height="11.615151515151515"></rect><rect shape-rendering="optimizeSpeed" fill="#000" x="240.3030303030303" y="136.66666666666669" width="11.615151515151515" height="11.615151515151515"></rect><rect shape-rendering="optimizeSpeed" fill="#000" x="251.8181818181818" y="136.66666666666669" width="11.615151515151515" height="11.615151515151515"></rect><rect shape-rendering="optimizeSpeed" fill="#000" x="263.33333333333337" y="136.66666666666669" width="11.615151515151515" height="11.615151515151515"></rect><rect shape-rendering="optimizeSpeed" fill="#000" x="274.8484848484849" y="136.66666666666669" width="11.615151515151515" height="11.615151515151515"></rect><rect shape-rendering="optimizeSpeed" fill="#000" x="286.3636363636364" y="136.66666666666669" width="11.615151515151515" height="11.615151515151515"></rect><rect shape-rendering="optimizeSpeed" fill="#000" x="309.3939393939394" y="136.66666666666669" width="11.615151515151515" height="11.615151515151515"></rect><rect shape-rendering="optimizeSpeed" fill="#000" x="366.969696969697" y="136.66666666666669" width="11.615151515151515" height="11.615151515151515"></rect><rect shape-rendering="optimizeSpeed" fill="#000" x="378.4848484848485" y="136.66666666666669" width="11.615151515151515" height="11.615151515151515"></rect><rect shape-rendering="optimizeSpeed" fill="#000" x="10" y="148.1818181818182" width="11.615151515151515" height="11.615151515151515"></rect><rect shape-rendering="optimizeSpeed" fill="#000" x="21.515151515151516" y="148.1818181818182" width="11.615151515151515" height="11.615151515151515"></rect><rect shape-rendering="optimizeSpeed" fill="#000" x="67.57575757575758" y="148.1818181818182" width="11.615151515151515" height="11.615151515151515"></rect><rect shape-rendering="optimizeSpeed" fill="#000" x="79.0909090909091" y="148.1818181818182" width="11.615151515151515" height="11.615151515151515"></rect><rect shape-rendering="optimizeSpeed" fill="#000" x="90.60606060606061" y="148.1818181818182" width="11.615151515151515" height="11.615151515151515"></rect><rect shape-rendering="optimizeSpeed" fill="#000" x="102.12121212121212" y="148.1818181818182" width="11.615151515151515" height="11.615151515151515"></rect><rect shape-rendering="optimizeSpeed" fill="#000" x="125.15151515151516" y="148.1818181818182" width="11.615151515151515" height="11.615151515151515"></rect><rect shape-rendering="optimizeSpeed" fill="#000" x="136.66666666666669" y="148.1818181818182" width="11.615151515151515" height="11.615151515151515"></rect><rect shape-rendering="optimizeSpeed" fill="#000" x="159.6969696969697" y="148.1818181818182" width="11.615151515151515" height="11.615151515151515"></rect><rect shape-rendering="optimizeSpeed" fill="#000" x="194.24242424242425" y="148.1818181818182" width="11.615151515151515" height="11.615151515151515"></rect><rect shape-rendering="optimizeSpeed" fill="#000" x="205.75757575757575" y="148.1818181818182" width="11.615151515151515" height="11.615151515151515"></rect><rect shape-rendering="optimizeSpeed" fill="#000" x="274.8484848484849" y="148.1818181818182" width="11.615151515151515" height="11.615151515151515"></rect><rect shape-rendering="optimizeSpeed" fill="#000" x="286.3636363636364" y="148.1818181818182" width="11.615151515151515" height="11.615151515151515"></rect><rect shape-rendering="optimizeSpeed" fill="#000" x="297.8787878787879" y="148.1818181818182" width="11.615151515151515" height="11.615151515151515"></rect><rect shape-rendering="optimizeSpeed" fill="#000" x="309.3939393939394" y="148.1818181818182" width="11.615151515151515" height="11.615151515151515"></rect><rect shape-rendering="optimizeSpeed" fill="#000" x="320.90909090909093" y="148.1818181818182" width="11.615151515151515" height="11.615151515151515"></rect><rect shape-rendering="optimizeSpeed" fill="#000" x="343.93939393939394" y="148.1818181818182" width="11.615151515151515" height="11.615151515151515"></rect><rect shape-rendering="optimizeSpeed" fill="#000" x="378.4848484848485" y="148.1818181818182" width="11.615151515151515" height="11.615151515151515"></rect><rect shape-rendering="optimizeSpeed" fill="#000" x="21.515151515151516" y="159.6969696969697" width="11.615151515151515" height="11.615151515151515"></rect><rect shape-rendering="optimizeSpeed" fill="#000" x="44.54545454545455" y="159.6969696969697" width="11.615151515151515" height="11.615151515151515"></rect><rect shape-rendering="optimizeSpeed" fill="#000" x="102.12121212121212" y="159.6969696969697" width="11.615151515151515" height="11.615151515151515"></rect><rect shape-rendering="optimizeSpeed" fill="#000" x="136.66666666666669" y="159.6969696969697" width="11.615151515151515" height="11.615151515151515"></rect><rect shape-rendering="optimizeSpeed" fill="#000" x="205.75757575757575" y="159.6969696969697" width="11.615151515151515" height="11.615151515151515"></rect><rect shape-rendering="optimizeSpeed" fill="#000" x="228.7878787878788" y="159.6969696969697" width="11.615151515151515" height="11.615151515151515"></rect><rect shape-rendering="optimizeSpeed" fill="#000" x="251.8181818181818" y="159.6969696969697" width="11.615151515151515" height="11.615151515151515"></rect><rect shape-rendering="optimizeSpeed" fill="#000" x="274.8484848484849" y="159.6969696969697" width="11.615151515151515" height="11.615151515151515"></rect><rect shape-rendering="optimizeSpeed" fill="#000" x="286.3636363636364" y="159.6969696969697" width="11.615151515151515" height="11.615151515151515"></rect><rect shape-rendering="optimizeSpeed" fill="#000" x="309.3939393939394" y="159.6969696969697" width="11.615151515151515" height="11.615151515151515"></rect><rect shape-rendering="optimizeSpeed" fill="#000" x="332.42424242424244" y="159.6969696969697" width="11.615151515151515" height="11.615151515151515"></rect><rect shape-rendering="optimizeSpeed" fill="#000" x="343.93939393939394" y="159.6969696969697" width="11.615151515151515" height="11.615151515151515"></rect><rect shape-rendering="optimizeSpeed" fill="#000" x="355.4545454545455" y="159.6969696969697" width="11.615151515151515" height="11.615151515151515"></rect><rect shape-rendering="optimizeSpeed" fill="#000" x="366.969696969697" y="159.6969696969697" width="11.615151515151515" height="11.615151515151515"></rect><rect shape-rendering="optimizeSpeed" fill="#000" x="378.4848484848485" y="159.6969696969697" width="11.615151515151515" height="11.615151515151515"></rect><rect shape-rendering="optimizeSpeed" fill="#000" x="10" y="171.21212121212122" width="11.615151515151515" height="11.615151515151515"></rect><rect shape-rendering="optimizeSpeed" fill="#000" x="21.515151515151516" y="171.21212121212122" width="11.615151515151515" height="11.615151515151515"></rect><rect shape-rendering="optimizeSpeed" fill="#000" x="79.0909090909091" y="171.21212121212122" width="11.615151515151515" height="11.615151515151515"></rect><rect shape-rendering="optimizeSpeed" fill="#000" x="90.60606060606061" y="171.21212121212122" width="11.615151515151515" height="11.615151515151515"></rect><rect shape-rendering="optimizeSpeed" fill="#000" x="102.12121212121212" y="171.21212121212122" width="11.615151515151515" height="11.615151515151515"></rect><rect shape-rendering="optimizeSpeed" fill="#000" x="113.63636363636364" y="171.21212121212122" width="11.615151515151515" height="11.615151515151515"></rect><rect shape-rendering="optimizeSpeed" fill="#000" x="136.66666666666669" y="171.21212121212122" width="11.615151515151515" height="11.615151515151515"></rect><rect shape-rendering="optimizeSpeed" fill="#000" x="171.21212121212122" y="171.21212121212122" width="11.615151515151515" height="11.615151515151515"></rect><rect shape-rendering="optimizeSpeed" fill="#000" x="194.24242424242425" y="171.21212121212122" width="11.615151515151515" height="11.615151515151515"></rect><rect shape-rendering="optimizeSpeed" fill="#000" x="251.8181818181818" y="171.21212121212122" width="11.615151515151515" height="11.615151515151515"></rect><rect shape-rendering="optimizeSpeed" fill="#000" x="263.33333333333337" y="171.21212121212122" width="11.615151515151515" height="11.615151515151515"></rect><rect shape-rendering="optimizeSpeed" fill="#000" x="274.8484848484849" y="171.21212121212122" width="11.615151515151515" height="11.615151515151515"></rect><rect shape-rendering="optimizeSpeed" fill="#000" x="286.3636363636364" y="171.21212121212122" width="11.615151515151515" height="11.615151515151515"></rect><rect shape-rendering="optimizeSpeed" fill="#000" x="297.8787878787879" y="171.21212121212122" width="11.615151515151515" height="11.615151515151515"></rect><rect shape-rendering="optimizeSpeed" fill="#000" x="309.3939393939394" y="171.21212121212122" width="11.615151515151515" height="11.615151515151515"></rect><rect shape-rendering="optimizeSpeed" fill="#000" x="320.90909090909093" y="171.21212121212122" width="11.615151515151515" height="11.615151515151515"></rect><rect shape-rendering="optimizeSpeed" fill="#000" x="343.93939393939394" y="171.21212121212122" width="11.615151515151515" height="11.615151515151515"></rect><rect shape-rendering="optimizeSpeed" fill="#000" x="366.969696969697" y="171.21212121212122" width="11.615151515151515" height="11.615151515151515"></rect><rect shape-rendering="optimizeSpeed" fill="#000" x="10" y="182.72727272727275" width="11.615151515151515" height="11.615151515151515"></rect><rect shape-rendering="optimizeSpeed" fill="#000" x="21.515151515151516" y="182.72727272727275" width="11.615151515151515" height="11.615151515151515"></rect><rect shape-rendering="optimizeSpeed" fill="#000" x="33.03030303030303" y="182.72727272727275" width="11.615151515151515" height="11.615151515151515"></rect><rect shape-rendering="optimizeSpeed" fill="#000" x="67.57575757575758" y="182.72727272727275" width="11.615151515151515" height="11.615151515151515"></rect><rect shape-rendering="optimizeSpeed" fill="#000" x="90.60606060606061" y="182.72727272727275" width="11.615151515151515" height="11.615151515151515"></rect><rect shape-rendering="optimizeSpeed" fill="#000" x="102.12121212121212" y="182.72727272727275" width="11.615151515151515" height="11.615151515151515"></rect><rect shape-rendering="optimizeSpeed" fill="#000" x="125.15151515151516" y="182.72727272727275" width="11.615151515151515" height="11.615151515151515"></rect><rect shape-rendering="optimizeSpeed" fill="#000" x="136.66666666666669" y="182.72727272727275" width="11.615151515151515" height="11.615151515151515"></rect><rect shape-rendering="optimizeSpeed" fill="#000" x="159.6969696969697" y="182.72727272727275" width="11.615151515151515" height="11.615151515151515"></rect><rect shape-rendering="optimizeSpeed" fill="#000" x="171.21212121212122" y="182.72727272727275" width="11.615151515151515" height="11.615151515151515"></rect><rect shape-rendering="optimizeSpeed" fill="#000" x="182.72727272727275" y="182.72727272727275" width="11.615151515151515" height="11.615151515151515"></rect><rect shape-rendering="optimizeSpeed" fill="#000" x="194.24242424242425" y="182.72727272727275" width="11.615151515151515" height="11.615151515151515"></rect><rect shape-rendering="optimizeSpeed" fill="#000" x="205.75757575757575" y="182.72727272727275" width="11.615151515151515" height="11.615151515151515"></rect><rect shape-rendering="optimizeSpeed" fill="#000" x="228.7878787878788" y="182.72727272727275" width="11.615151515151515" height="11.615151515151515"></rect><rect shape-rendering="optimizeSpeed" fill="#000" x="251.8181818181818" y="182.72727272727275" width="11.615151515151515" height="11.615151515151515"></rect><rect shape-rendering="optimizeSpeed" fill="#000" x="263.33333333333337" y="182.72727272727275" width="11.615151515151515" height="11.615151515151515"></rect><rect shape-rendering="optimizeSpeed" fill="#000" x="309.3939393939394" y="182.72727272727275" width="11.615151515151515" height="11.615151515151515"></rect><rect shape-rendering="optimizeSpeed" fill="#000" x="332.42424242424244" y="182.72727272727275" width="11.615151515151515" height="11.615151515151515"></rect><rect shape-rendering="optimizeSpeed" fill="#000" x="343.93939393939394" y="182.72727272727275" width="11.615151515151515" height="11.615151515151515"></rect><rect shape-rendering="optimizeSpeed" fill="#000" x="366.969696969697" y="182.72727272727275" width="11.615151515151515" height="11.615151515151515"></rect><rect shape-rendering="optimizeSpeed" fill="#000" x="21.515151515151516" y="194.24242424242425" width="11.615151515151515" height="11.615151515151515"></rect><rect shape-rendering="optimizeSpeed" fill="#000" x="56.06060606060606" y="194.24242424242425" width="11.615151515151515" height="11.615151515151515"></rect><rect shape-rendering="optimizeSpeed" fill="#000" x="67.57575757575758" y="194.24242424242425" width="11.615151515151515" height="11.615151515151515"></rect><rect shape-rendering="optimizeSpeed" fill="#000" x="79.0909090909091" y="194.24242424242425" width="11.615151515151515" height="11.615151515151515"></rect><rect shape-rendering="optimizeSpeed" fill="#000" x="102.12121212121212" y="194.24242424242425" width="11.615151515151515" height="11.615151515151515"></rect><rect shape-rendering="optimizeSpeed" fill="#000" x="148.1818181818182" y="194.24242424242425" width="11.615151515151515" height="11.615151515151515"></rect><rect shape-rendering="optimizeSpeed" fill="#000" x="171.21212121212122" y="194.24242424242425" width="11.615151515151515" height="11.615151515151515"></rect><rect shape-rendering="optimizeSpeed" fill="#000" x="205.75757575757575" y="194.24242424242425" width="11.615151515151515" height="11.615151515151515"></rect><rect shape-rendering="optimizeSpeed" fill="#000" x="217.27272727272728" y="194.24242424242425" width="11.615151515151515" height="11.615151515151515"></rect><rect shape-rendering="optimizeSpeed" fill="#000" x="228.7878787878788" y="194.24242424242425" width="11.615151515151515" height="11.615151515151515"></rect><rect shape-rendering="optimizeSpeed" fill="#000" x="263.33333333333337" y="194.24242424242425" width="11.615151515151515" height="11.615151515151515"></rect><rect shape-rendering="optimizeSpeed" fill="#000" x="309.3939393939394" y="194.24242424242425" width="11.615151515151515" height="11.615151515151515"></rect><rect shape-rendering="optimizeSpeed" fill="#000" x="332.42424242424244" y="194.24242424242425" width="11.615151515151515" height="11.615151515151515"></rect><rect shape-rendering="optimizeSpeed" fill="#000" x="378.4848484848485" y="194.24242424242425" width="11.615151515151515" height="11.615151515151515"></rect><rect shape-rendering="optimizeSpeed" fill="#000" x="33.03030303030303" y="205.75757575757575" width="11.615151515151515" height="11.615151515151515"></rect><rect shape-rendering="optimizeSpeed" fill="#000" x="113.63636363636364" y="205.75757575757575" width="11.615151515151515" height="11.615151515151515"></rect><rect shape-rendering="optimizeSpeed" fill="#000" x="125.15151515151516" y="205.75757575757575" width="11.615151515151515" height="11.615151515151515"></rect><rect shape-rendering="optimizeSpeed" fill="#000" x="148.1818181818182" y="205.75757575757575" width="11.615151515151515" height="11.615151515151515"></rect><rect shape-rendering="optimizeSpeed" fill="#000" x="194.24242424242425" y="205.75757575757575" width="11.615151515151515" height="11.615151515151515"></rect><rect shape-rendering="optimizeSpeed" fill="#000" x="217.27272727272728" y="205.75757575757575" width="11.615151515151515" height="11.615151515151515"></rect><rect shape-rendering="optimizeSpeed" fill="#000" x="240.3030303030303" y="205.75757575757575" width="11.615151515151515" height="11.615151515151515"></rect><rect shape-rendering="optimizeSpeed" fill="#000" x="251.8181818181818" y="205.75757575757575" width="11.615151515151515" height="11.615151515151515"></rect><rect shape-rendering="optimizeSpeed" fill="#000" x="263.33333333333337" y="205.75757575757575" width="11.615151515151515" height="11.615151515151515"></rect><rect shape-rendering="optimizeSpeed" fill="#000" x="286.3636363636364" y="205.75757575757575" width="11.615151515151515" height="11.615151515151515"></rect><rect shape-rendering="optimizeSpeed" fill="#000" x="297.8787878787879" y="205.75757575757575" width="11.615151515151515" height="11.615151515151515"></rect><rect shape-rendering="optimizeSpeed" fill="#000" x="343.93939393939394" y="205.75757575757575" width="11.615151515151515" height="11.615151515151515"></rect><rect shape-rendering="optimizeSpeed" fill="#000" x="355.4545454545455" y="205.75757575757575" width="11.615151515151515" height="11.615151515151515"></rect><rect shape-rendering="optimizeSpeed" fill="#000" x="56.06060606060606" y="217.27272727272728" width="11.615151515151515" height="11.615151515151515"></rect><rect shape-rendering="optimizeSpeed" fill="#000" x="67.57575757575758" y="217.27272727272728" width="11.615151515151515" height="11.615151515151515"></rect><rect shape-rendering="optimizeSpeed" fill="#000" x="79.0909090909091" y="217.27272727272728" width="11.615151515151515" height="11.615151515151515"></rect><rect shape-rendering="optimizeSpeed" fill="#000" x="90.60606060606061" y="217.27272727272728" width="11.615151515151515" height="11.615151515151515"></rect><rect shape-rendering="optimizeSpeed" fill="#000" x="102.12121212121212" y="217.27272727272728" width="11.615151515151515" height="11.615151515151515"></rect><rect shape-rendering="optimizeSpeed" fill="#000" x="136.66666666666669" y="217.27272727272728" width="11.615151515151515" height="11.615151515151515"></rect><rect shape-rendering="optimizeSpeed" fill="#000" x="148.1818181818182" y="217.27272727272728" width="11.615151515151515" height="11.615151515151515"></rect><rect shape-rendering="optimizeSpeed" fill="#000" x="171.21212121212122" y="217.27272727272728" width="11.615151515151515" height="11.615151515151515"></rect><rect shape-rendering="optimizeSpeed" fill="#000" x="194.24242424242425" y="217.27272727272728" width="11.615151515151515" height="11.615151515151515"></rect><rect shape-rendering="optimizeSpeed" fill="#000" x="205.75757575757575" y="217.27272727272728" width="11.615151515151515" height="11.615151515151515"></rect><rect shape-rendering="optimizeSpeed" fill="#000" x="217.27272727272728" y="217.27272727272728" width="11.615151515151515" height="11.615151515151515"></rect><rect shape-rendering="optimizeSpeed" fill="#000" x="286.3636363636364" y="217.27272727272728" width="11.615151515151515" height="11.615151515151515"></rect><rect shape-rendering="optimizeSpeed" fill="#000" x="297.8787878787879" y="217.27272727272728" width="11.615151515151515" height="11.615151515151515"></rect><rect shape-rendering="optimizeSpeed" fill="#000" x="343.93939393939394" y="217.27272727272728" width="11.615151515151515" height="11.615151515151515"></rect><rect shape-rendering="optimizeSpeed" fill="#000" x="366.969696969697" y="217.27272727272728" width="11.615151515151515" height="11.615151515151515"></rect><rect shape-rendering="optimizeSpeed" fill="#000" x="378.4848484848485" y="217.27272727272728" width="11.615151515151515" height="11.615151515151515"></rect><rect shape-rendering="optimizeSpeed" fill="#000" x="10" y="228.7878787878788" width="11.615151515151515" height="11.615151515151515"></rect><rect shape-rendering="optimizeSpeed" fill="#000" x="21.515151515151516" y="228.7878787878788" width="11.615151515151515" height="11.615151515151515"></rect><rect shape-rendering="optimizeSpeed" fill="#000" x="33.03030303030303" y="228.7878787878788" width="11.615151515151515" height="11.615151515151515"></rect><rect shape-rendering="optimizeSpeed" fill="#000" x="56.06060606060606" y="228.7878787878788" width="11.615151515151515" height="11.615151515151515"></rect><rect shape-rendering="optimizeSpeed" fill="#000" x="90.60606060606061" y="228.7878787878788" width="11.615151515151515" height="11.615151515151515"></rect><rect shape-rendering="optimizeSpeed" fill="#000" x="148.1818181818182" y="228.7878787878788" width="11.615151515151515" height="11.615151515151515"></rect><rect shape-rendering="optimizeSpeed" fill="#000" x="171.21212121212122" y="228.7878787878788" width="11.615151515151515" height="11.615151515151515"></rect><rect shape-rendering="optimizeSpeed" fill="#000" x="205.75757575757575" y="228.7878787878788" width="11.615151515151515" height="11.615151515151515"></rect><rect shape-rendering="optimizeSpeed" fill="#000" x="251.8181818181818" y="228.7878787878788" width="11.615151515151515" height="11.615151515151515"></rect><rect shape-rendering="optimizeSpeed" fill="#000" x="263.33333333333337" y="228.7878787878788" width="11.615151515151515" height="11.615151515151515"></rect><rect shape-rendering="optimizeSpeed" fill="#000" x="274.8484848484849" y="228.7878787878788" width="11.615151515151515" height="11.615151515151515"></rect><rect shape-rendering="optimizeSpeed" fill="#000" x="309.3939393939394" y="228.7878787878788" width="11.615151515151515" height="11.615151515151515"></rect><rect shape-rendering="optimizeSpeed" fill="#000" x="343.93939393939394" y="228.7878787878788" width="11.615151515151515" height="11.615151515151515"></rect><rect shape-rendering="optimizeSpeed" fill="#000" x="44.54545454545455" y="240.3030303030303" width="11.615151515151515" height="11.615151515151515"></rect><rect shape-rendering="optimizeSpeed" fill="#000" x="56.06060606060606" y="240.3030303030303" width="11.615151515151515" height="11.615151515151515"></rect><rect shape-rendering="optimizeSpeed" fill="#000" x="79.0909090909091" y="240.3030303030303" width="11.615151515151515" height="11.615151515151515"></rect><rect shape-rendering="optimizeSpeed" fill="#000" x="125.15151515151516" y="240.3030303030303" width="11.615151515151515" height="11.615151515151515"></rect><rect shape-rendering="optimizeSpeed" fill="#000" x="159.6969696969697" y="240.3030303030303" width="11.615151515151515" height="11.615151515151515"></rect><rect shape-rendering="optimizeSpeed" fill="#000" x="217.27272727272728" y="240.3030303030303" width="11.615151515151515" height="11.615151515151515"></rect><rect shape-rendering="optimizeSpeed" fill="#000" x="228.7878787878788" y="240.3030303030303" width="11.615151515151515" height="11.615151515151515"></rect><rect shape-rendering="optimizeSpeed" fill="#000" x="240.3030303030303" y="240.3030303030303" width="11.615151515151515" height="11.615151515151515"></rect><rect shape-rendering="optimizeSpeed" fill="#000" x="274.8484848484849" y="240.3030303030303" width="11.615151515151515" height="11.615151515151515"></rect><rect shape-rendering="optimizeSpeed" fill="#000" x="343.93939393939394" y="240.3030303030303" width="11.615151515151515" height="11.615151515151515"></rect><rect shape-rendering="optimizeSpeed" fill="#000" x="366.969696969697" y="240.3030303030303" width="11.615151515151515" height="11.615151515151515"></rect><rect shape-rendering="optimizeSpeed" fill="#000" x="44.54545454545455" y="251.8181818181818" width="11.615151515151515" height="11.615151515151515"></rect><rect shape-rendering="optimizeSpeed" fill="#000" x="56.06060606060606" y="251.8181818181818" width="11.615151515151515" height="11.615151515151515"></rect><rect shape-rendering="optimizeSpeed" fill="#000" x="136.66666666666669" y="251.8181818181818" width="11.615151515151515" height="11.615151515151515"></rect><rect shape-rendering="optimizeSpeed" fill="#000" x="159.6969696969697" y="251.8181818181818" width="11.615151515151515" height="11.615151515151515"></rect><rect shape-rendering="optimizeSpeed" fill="#000" x="171.21212121212122" y="251.8181818181818" width="11.615151515151515" height="11.615151515151515"></rect><rect shape-rendering="optimizeSpeed" fill="#000" x="217.27272727272728" y="251.8181818181818" width="11.615151515151515" height="11.615151515151515"></rect><rect shape-rendering="optimizeSpeed" fill="#000" x="251.8181818181818" y="251.8181818181818" width="11.615151515151515" height="11.615151515151515"></rect><rect shape-rendering="optimizeSpeed" fill="#000" x="263.33333333333337" y="251.8181818181818" width="11.615151515151515" height="11.615151515151515"></rect><rect shape-rendering="optimizeSpeed" fill="#000" x="274.8484848484849" y="251.8181818181818" width="11.615151515151515" height="11.615151515151515"></rect><rect shape-rendering="optimizeSpeed" fill="#000" x="286.3636363636364" y="251.8181818181818" width="11.615151515151515" height="11.615151515151515"></rect><rect shape-rendering="optimizeSpeed" fill="#000" x="297.8787878787879" y="251.8181818181818" width="11.615151515151515" height="11.615151515151515"></rect><rect shape-rendering="optimizeSpeed" fill="#000" x="309.3939393939394" y="251.8181818181818" width="11.615151515151515" height="11.615151515151515"></rect><rect shape-rendering="optimizeSpeed" fill="#000" x="355.4545454545455" y="251.8181818181818" width="11.615151515151515" height="11.615151515151515"></rect><rect shape-rendering="optimizeSpeed" fill="#000" x="378.4848484848485" y="251.8181818181818" width="11.615151515151515" height="11.615151515151515"></rect><rect shape-rendering="optimizeSpeed" fill="#000" x="10" y="263.33333333333337" width="11.615151515151515" height="11.615151515151515"></rect><rect shape-rendering="optimizeSpeed" fill="#000" x="21.515151515151516" y="263.33333333333337" width="11.615151515151515" height="11.615151515151515"></rect><rect shape-rendering="optimizeSpeed" fill="#000" x="56.06060606060606" y="263.33333333333337" width="11.615151515151515" height="11.615151515151515"></rect><rect shape-rendering="optimizeSpeed" fill="#000" x="67.57575757575758" y="263.33333333333337" width="11.615151515151515" height="11.615151515151515"></rect><rect shape-rendering="optimizeSpeed" fill="#000" x="79.0909090909091" y="263.33333333333337" width="11.615151515151515" height="11.615151515151515"></rect><rect shape-rendering="optimizeSpeed" fill="#000" x="90.60606060606061" y="263.33333333333337" width="11.615151515151515" height="11.615151515151515"></rect><rect shape-rendering="optimizeSpeed" fill="#000" x="113.63636363636364" y="263.33333333333337" width="11.615151515151515" height="11.615151515151515"></rect><rect shape-rendering="optimizeSpeed" fill="#000" x="217.27272727272728" y="263.33333333333337" width="11.615151515151515" height="11.615151515151515"></rect><rect shape-rendering="optimizeSpeed" fill="#000" x="228.7878787878788" y="263.33333333333337" width="11.615151515151515" height="11.615151515151515"></rect><rect shape-rendering="optimizeSpeed" fill="#000" x="263.33333333333337" y="263.33333333333337" width="11.615151515151515" height="11.615151515151515"></rect><rect shape-rendering="optimizeSpeed" fill="#000" x="332.42424242424244" y="263.33333333333337" width="11.615151515151515" height="11.615151515151515"></rect><rect shape-rendering="optimizeSpeed" fill="#000" x="343.93939393939394" y="263.33333333333337" width="11.615151515151515" height="11.615151515151515"></rect><rect shape-rendering="optimizeSpeed" fill="#000" x="378.4848484848485" y="263.33333333333337" width="11.615151515151515" height="11.615151515151515"></rect><rect shape-rendering="optimizeSpeed" fill="#000" x="21.515151515151516" y="274.8484848484849" width="11.615151515151515" height="11.615151515151515"></rect><rect shape-rendering="optimizeSpeed" fill="#000" x="56.06060606060606" y="274.8484848484849" width="11.615151515151515" height="11.615151515151515"></rect><rect shape-rendering="optimizeSpeed" fill="#000" x="113.63636363636364" y="274.8484848484849" width="11.615151515151515" height="11.615151515151515"></rect><rect shape-rendering="optimizeSpeed" fill="#000" x="159.6969696969697" y="274.8484848484849" width="11.615151515151515" height="11.615151515151515"></rect><rect shape-rendering="optimizeSpeed" fill="#000" x="182.72727272727275" y="274.8484848484849" width="11.615151515151515" height="11.615151515151515"></rect><rect shape-rendering="optimizeSpeed" fill="#000" x="240.3030303030303" y="274.8484848484849" width="11.615151515151515" height="11.615151515151515"></rect><rect shape-rendering="optimizeSpeed" fill="#000" x="251.8181818181818" y="274.8484848484849" width="11.615151515151515" height="11.615151515151515"></rect><rect shape-rendering="optimizeSpeed" fill="#000" x="263.33333333333337" y="274.8484848484849" width="11.615151515151515" height="11.615151515151515"></rect><rect shape-rendering="optimizeSpeed" fill="#000" x="274.8484848484849" y="274.8484848484849" width="11.615151515151515" height="11.615151515151515"></rect><rect shape-rendering="optimizeSpeed" fill="#000" x="286.3636363636364" y="274.8484848484849" width="11.615151515151515" height="11.615151515151515"></rect><rect shape-rendering="optimizeSpeed" fill="#000" x="297.8787878787879" y="274.8484848484849" width="11.615151515151515" height="11.615151515151515"></rect><rect shape-rendering="optimizeSpeed" fill="#000" x="332.42424242424244" y="274.8484848484849" width="11.615151515151515" height="11.615151515151515"></rect><rect shape-rendering="optimizeSpeed" fill="#000" x="343.93939393939394" y="274.8484848484849" width="11.615151515151515" height="11.615151515151515"></rect><rect shape-rendering="optimizeSpeed" fill="#000" x="366.969696969697" y="274.8484848484849" width="11.615151515151515" height="11.615151515151515"></rect><rect shape-rendering="optimizeSpeed" fill="#000" x="378.4848484848485" y="274.8484848484849" width="11.615151515151515" height="11.615151515151515"></rect><rect shape-rendering="optimizeSpeed" fill="#000" x="10" y="286.3636363636364" width="11.615151515151515" height="11.615151515151515"></rect><rect shape-rendering="optimizeSpeed" fill="#000" x="56.06060606060606" y="286.3636363636364" width="11.615151515151515" height="11.615151515151515"></rect><rect shape-rendering="optimizeSpeed" fill="#000" x="79.0909090909091" y="286.3636363636364" width="11.615151515151515" height="11.615151515151515"></rect><rect shape-rendering="optimizeSpeed" fill="#000" x="90.60606060606061" y="286.3636363636364" width="11.615151515151515" height="11.615151515151515"></rect><rect shape-rendering="optimizeSpeed" fill="#000" x="102.12121212121212" y="286.3636363636364" width="11.615151515151515" height="11.615151515151515"></rect><rect shape-rendering="optimizeSpeed" fill="#000" x="113.63636363636364" y="286.3636363636364" width="11.615151515151515" height="11.615151515151515"></rect><rect shape-rendering="optimizeSpeed" fill="#000" x="148.1818181818182" y="286.3636363636364" width="11.615151515151515" height="11.615151515151515"></rect><rect shape-rendering="optimizeSpeed" fill="#000" x="159.6969696969697" y="286.3636363636364" width="11.615151515151515" height="11.615151515151515"></rect><rect shape-rendering="optimizeSpeed" fill="#000" x="182.72727272727275" y="286.3636363636364" width="11.615151515151515" height="11.615151515151515"></rect><rect shape-rendering="optimizeSpeed" fill="#000" x="205.75757575757575" y="286.3636363636364" width="11.615151515151515" height="11.615151515151515"></rect><rect shape-rendering="optimizeSpeed" fill="#000" x="217.27272727272728" y="286.3636363636364" width="11.615151515151515" height="11.615151515151515"></rect><rect shape-rendering="optimizeSpeed" fill="#000" x="274.8484848484849" y="286.3636363636364" width="11.615151515151515" height="11.615151515151515"></rect><rect shape-rendering="optimizeSpeed" fill="#000" x="286.3636363636364" y="286.3636363636364" width="11.615151515151515" height="11.615151515151515"></rect><rect shape-rendering="optimizeSpeed" fill="#000" x="297.8787878787879" y="286.3636363636364" width="11.615151515151515" height="11.615151515151515"></rect><rect shape-rendering="optimizeSpeed" fill="#000" x="309.3939393939394" y="286.3636363636364" width="11.615151515151515" height="11.615151515151515"></rect><rect shape-rendering="optimizeSpeed" fill="#000" x="320.90909090909093" y="286.3636363636364" width="11.615151515151515" height="11.615151515151515"></rect><rect shape-rendering="optimizeSpeed" fill="#000" x="332.42424242424244" y="286.3636363636364" width="11.615151515151515" height="11.615151515151515"></rect><rect shape-rendering="optimizeSpeed" fill="#000" x="343.93939393939394" y="286.3636363636364" width="11.615151515151515" height="11.615151515151515"></rect><rect shape-rendering="optimizeSpeed" fill="#000" x="102.12121212121212" y="297.8787878787879" width="11.615151515151515" height="11.615151515151515"></rect><rect shape-rendering="optimizeSpeed" fill="#000" x="113.63636363636364" y="297.8787878787879" width="11.615151515151515" height="11.615151515151515"></rect><rect shape-rendering="optimizeSpeed" fill="#000" x="125.15151515151516" y="297.8787878787879" width="11.615151515151515" height="11.615151515151515"></rect><rect shape-rendering="optimizeSpeed" fill="#000" x="136.66666666666669" y="297.8787878787879" width="11.615151515151515" height="11.615151515151515"></rect><rect shape-rendering="optimizeSpeed" fill="#000" x="148.1818181818182" y="297.8787878787879" width="11.615151515151515" height="11.615151515151515"></rect><rect shape-rendering="optimizeSpeed" fill="#000" x="194.24242424242425" y="297.8787878787879" width="11.615151515151515" height="11.615151515151515"></rect><rect shape-rendering="optimizeSpeed" fill="#000" x="205.75757575757575" y="297.8787878787879" width="11.615151515151515" height="11.615151515151515"></rect><rect shape-rendering="optimizeSpeed" fill="#000" x="217.27272727272728" y="297.8787878787879" width="11.615151515151515" height="11.615151515151515"></rect><rect shape-rendering="optimizeSpeed" fill="#000" x="228.7878787878788" y="297.8787878787879" width="11.615151515151515" height="11.615151515151515"></rect><rect shape-rendering="optimizeSpeed" fill="#000" x="251.8181818181818" y="297.8787878787879" width="11.615151515151515" height="11.615151515151515"></rect><rect shape-rendering="optimizeSpeed" fill="#000" x="263.33333333333337" y="297.8787878787879" width="11.615151515151515" height="11.615151515151515"></rect><rect shape-rendering="optimizeSpeed" fill="#000" x="274.8484848484849" y="297.8787878787879" width="11.615151515151515" height="11.615151515151515"></rect><rect shape-rendering="optimizeSpeed" fill="#000" x="286.3636363636364" y="297.8787878787879" width="11.615151515151515" height="11.615151515151515"></rect><rect shape-rendering="optimizeSpeed" fill="#000" x="332.42424242424244" y="297.8787878787879" width="11.615151515151515" height="11.615151515151515"></rect><rect shape-rendering="optimizeSpeed" fill="#000" x="378.4848484848485" y="297.8787878787879" width="11.615151515151515" height="11.615151515151515"></rect><rect shape-rendering="optimizeSpeed" fill="#000" x="10" y="309.3939393939394" width="11.615151515151515" height="11.615151515151515"></rect><rect shape-rendering="optimizeSpeed" fill="#000" x="21.515151515151516" y="309.3939393939394" width="11.615151515151515" height="11.615151515151515"></rect><rect shape-rendering="optimizeSpeed" fill="#000" x="33.03030303030303" y="309.3939393939394" width="11.615151515151515" height="11.615151515151515"></rect><rect shape-rendering="optimizeSpeed" fill="#000" x="44.54545454545455" y="309.3939393939394" width="11.615151515151515" height="11.615151515151515"></rect><rect shape-rendering="optimizeSpeed" fill="#000" x="56.06060606060606" y="309.3939393939394" width="11.615151515151515" height="11.615151515151515"></rect><rect shape-rendering="optimizeSpeed" fill="#000" x="67.57575757575758" y="309.3939393939394" width="11.615151515151515" height="11.615151515151515"></rect><rect shape-rendering="optimizeSpeed" fill="#000" x="79.0909090909091" y="309.3939393939394" width="11.615151515151515" height="11.615151515151515"></rect><rect shape-rendering="optimizeSpeed" fill="#000" x="102.12121212121212" y="309.3939393939394" width="11.615151515151515" height="11.615151515151515"></rect><rect shape-rendering="optimizeSpeed" fill="#000" x="113.63636363636364" y="309.3939393939394" width="11.615151515151515" height="11.615151515151515"></rect><rect shape-rendering="optimizeSpeed" fill="#000" x="125.15151515151516" y="309.3939393939394" width="11.615151515151515" height="11.615151515151515"></rect><rect shape-rendering="optimizeSpeed" fill="#000" x="148.1818181818182" y="309.3939393939394" width="11.615151515151515" height="11.615151515151515"></rect><rect shape-rendering="optimizeSpeed" fill="#000" x="171.21212121212122" y="309.3939393939394" width="11.615151515151515" height="11.615151515151515"></rect><rect shape-rendering="optimizeSpeed" fill="#000" x="194.24242424242425" y="309.3939393939394" width="11.615151515151515" height="11.615151515151515"></rect><rect shape-rendering="optimizeSpeed" fill="#000" x="205.75757575757575" y="309.3939393939394" width="11.615151515151515" height="11.615151515151515"></rect><rect shape-rendering="optimizeSpeed" fill="#000" x="217.27272727272728" y="309.3939393939394" width="11.615151515151515" height="11.615151515151515"></rect><rect shape-rendering="optimizeSpeed" fill="#000" x="286.3636363636364" y="309.3939393939394" width="11.615151515151515" height="11.615151515151515"></rect><rect shape-rendering="optimizeSpeed" fill="#000" x="309.3939393939394" y="309.3939393939394" width="11.615151515151515" height="11.615151515151515"></rect><rect shape-rendering="optimizeSpeed" fill="#000" x="332.42424242424244" y="309.3939393939394" width="11.615151515151515" height="11.615151515151515"></rect><rect shape-rendering="optimizeSpeed" fill="#000" x="366.969696969697" y="309.3939393939394" width="11.615151515151515" height="11.615151515151515"></rect><rect shape-rendering="optimizeSpeed" fill="#000" x="10" y="320.90909090909093" width="11.615151515151515" height="11.615151515151515"></rect><rect shape-rendering="optimizeSpeed" fill="#000" x="79.0909090909091" y="320.90909090909093" width="11.615151515151515" height="11.615151515151515"></rect><rect shape-rendering="optimizeSpeed" fill="#000" x="113.63636363636364" y="320.90909090909093" width="11.615151515151515" height="11.615151515151515"></rect><rect shape-rendering="optimizeSpeed" fill="#000" x="148.1818181818182" y="320.90909090909093" width="11.615151515151515" height="11.615151515151515"></rect><rect shape-rendering="optimizeSpeed" fill="#000" x="159.6969696969697" y="320.90909090909093" width="11.615151515151515" height="11.615151515151515"></rect><rect shape-rendering="optimizeSpeed" fill="#000" x="171.21212121212122" y="320.90909090909093" width="11.615151515151515" height="11.615151515151515"></rect><rect shape-rendering="optimizeSpeed" fill="#000" x="182.72727272727275" y="320.90909090909093" width="11.615151515151515" height="11.615151515151515"></rect><rect shape-rendering="optimizeSpeed" fill="#000" x="205.75757575757575" y="320.90909090909093" width="11.615151515151515" height="11.615151515151515"></rect><rect shape-rendering="optimizeSpeed" fill="#000" x="251.8181818181818" y="320.90909090909093" width="11.615151515151515" height="11.615151515151515"></rect><rect shape-rendering="optimizeSpeed" fill="#000" x="274.8484848484849" y="320.90909090909093" width="11.615151515151515" height="11.615151515151515"></rect><rect shape-rendering="optimizeSpeed" fill="#000" x="286.3636363636364" y="320.90909090909093" width="11.615151515151515" height="11.615151515151515"></rect><rect shape-rendering="optimizeSpeed" fill="#000" x="332.42424242424244" y="320.90909090909093" width="11.615151515151515" height="11.615151515151515"></rect><rect shape-rendering="optimizeSpeed" fill="#000" x="366.969696969697" y="320.90909090909093" width="11.615151515151515" height="11.615151515151515"></rect><rect shape-rendering="optimizeSpeed" fill="#000" x="10" y="332.42424242424244" width="11.615151515151515" height="11.615151515151515"></rect><rect shape-rendering="optimizeSpeed" fill="#000" x="33.03030303030303" y="332.42424242424244" width="11.615151515151515" height="11.615151515151515"></rect><rect shape-rendering="optimizeSpeed" fill="#000" x="44.54545454545455" y="332.42424242424244" width="11.615151515151515" height="11.615151515151515"></rect><rect shape-rendering="optimizeSpeed" fill="#000" x="56.06060606060606" y="332.42424242424244" width="11.615151515151515" height="11.615151515151515"></rect><rect shape-rendering="optimizeSpeed" fill="#000" x="79.0909090909091" y="332.42424242424244" width="11.615151515151515" height="11.615151515151515"></rect><rect shape-rendering="optimizeSpeed" fill="#000" x="125.15151515151516" y="332.42424242424244" width="11.615151515151515" height="11.615151515151515"></rect><rect shape-rendering="optimizeSpeed" fill="#000" x="136.66666666666669" y="332.42424242424244" width="11.615151515151515" height="11.615151515151515"></rect><rect shape-rendering="optimizeSpeed" fill="#000" x="148.1818181818182" y="332.42424242424244" width="11.615151515151515" height="11.615151515151515"></rect><rect shape-rendering="optimizeSpeed" fill="#000" x="171.21212121212122" y="332.42424242424244" width="11.615151515151515" height="11.615151515151515"></rect><rect shape-rendering="optimizeSpeed" fill="#000" x="182.72727272727275" y="332.42424242424244" width="11.615151515151515" height="11.615151515151515"></rect><rect shape-rendering="optimizeSpeed" fill="#000" x="194.24242424242425" y="332.42424242424244" width="11.615151515151515" height="11.615151515151515"></rect><rect shape-rendering="optimizeSpeed" fill="#000" x="205.75757575757575" y="332.42424242424244" width="11.615151515151515" height="11.615151515151515"></rect><rect shape-rendering="optimizeSpeed" fill="#000" x="228.7878787878788" y="332.42424242424244" width="11.615151515151515" height="11.615151515151515"></rect><rect shape-rendering="optimizeSpeed" fill="#000" x="263.33333333333337" y="332.42424242424244" width="11.615151515151515" height="11.615151515151515"></rect><rect shape-rendering="optimizeSpeed" fill="#000" x="286.3636363636364" y="332.42424242424244" width="11.615151515151515" height="11.615151515151515"></rect><rect shape-rendering="optimizeSpeed" fill="#000" x="297.8787878787879" y="332.42424242424244" width="11.615151515151515" height="11.615151515151515"></rect><rect shape-rendering="optimizeSpeed" fill="#000" x="309.3939393939394" y="332.42424242424244" width="11.615151515151515" height="11.615151515151515"></rect><rect shape-rendering="optimizeSpeed" fill="#000" x="320.90909090909093" y="332.42424242424244" width="11.615151515151515" height="11.615151515151515"></rect><rect shape-rendering="optimizeSpeed" fill="#000" x="332.42424242424244" y="332.42424242424244" width="11.615151515151515" height="11.615151515151515"></rect><rect shape-rendering="optimizeSpeed" fill="#000" x="343.93939393939394" y="332.42424242424244" width="11.615151515151515" height="11.615151515151515"></rect><rect shape-rendering="optimizeSpeed" fill="#000" x="378.4848484848485" y="332.42424242424244" width="11.615151515151515" height="11.615151515151515"></rect><rect shape-rendering="optimizeSpeed" fill="#000" x="10" y="343.93939393939394" width="11.615151515151515" height="11.615151515151515"></rect><rect shape-rendering="optimizeSpeed" fill="#000" x="33.03030303030303" y="343.93939393939394" width="11.615151515151515" height="11.615151515151515"></rect><rect shape-rendering="optimizeSpeed" fill="#000" x="44.54545454545455" y="343.93939393939394" width="11.615151515151515" height="11.615151515151515"></rect><rect shape-rendering="optimizeSpeed" fill="#000" x="56.06060606060606" y="343.93939393939394" width="11.615151515151515" height="11.615151515151515"></rect><rect shape-rendering="optimizeSpeed" fill="#000" x="79.0909090909091" y="343.93939393939394" width="11.615151515151515" height="11.615151515151515"></rect><rect shape-rendering="optimizeSpeed" fill="#000" x="102.12121212121212" y="343.93939393939394" width="11.615151515151515" height="11.615151515151515"></rect><rect shape-rendering="optimizeSpeed" fill="#000" x="125.15151515151516" y="343.93939393939394" width="11.615151515151515" height="11.615151515151515"></rect><rect shape-rendering="optimizeSpeed" fill="#000" x="240.3030303030303" y="343.93939393939394" width="11.615151515151515" height="11.615151515151515"></rect><rect shape-rendering="optimizeSpeed" fill="#000" x="263.33333333333337" y="343.93939393939394" width="11.615151515151515" height="11.615151515151515"></rect><rect shape-rendering="optimizeSpeed" fill="#000" x="274.8484848484849" y="343.93939393939394" width="11.615151515151515" height="11.615151515151515"></rect><rect shape-rendering="optimizeSpeed" fill="#000" x="286.3636363636364" y="343.93939393939394" width="11.615151515151515" height="11.615151515151515"></rect><rect shape-rendering="optimizeSpeed" fill="#000" x="309.3939393939394" y="343.93939393939394" width="11.615151515151515" height="11.615151515151515"></rect><rect shape-rendering="optimizeSpeed" fill="#000" x="320.90909090909093" y="343.93939393939394" width="11.615151515151515" height="11.615151515151515"></rect><rect shape-rendering="optimizeSpeed" fill="#000" x="332.42424242424244" y="343.93939393939394" width="11.615151515151515" height="11.615151515151515"></rect><rect shape-rendering="optimizeSpeed" fill="#000" x="343.93939393939394" y="343.93939393939394" width="11.615151515151515" height="11.615151515151515"></rect><rect shape-rendering="optimizeSpeed" fill="#000" x="366.969696969697" y="343.93939393939394" width="11.615151515151515" height="11.615151515151515"></rect><rect shape-rendering="optimizeSpeed" fill="#000" x="378.4848484848485" y="343.93939393939394" width="11.615151515151515" height="11.615151515151515"></rect><rect shape-rendering="optimizeSpeed" fill="#000" x="10" y="355.4545454545455" width="11.615151515151515" height="11.615151515151515"></rect><rect shape-rendering="optimizeSpeed" fill="#000" x="33.03030303030303" y="355.4545454545455" width="11.615151515151515" height="11.615151515151515"></rect><rect shape-rendering="optimizeSpeed" fill="#000" x="44.54545454545455" y="355.4545454545455" width="11.615151515151515" height="11.615151515151515"></rect><rect shape-rendering="optimizeSpeed" fill="#000" x="56.06060606060606" y="355.4545454545455" width="11.615151515151515" height="11.615151515151515"></rect><rect shape-rendering="optimizeSpeed" fill="#000" x="79.0909090909091" y="355.4545454545455" width="11.615151515151515" height="11.615151515151515"></rect><rect shape-rendering="optimizeSpeed" fill="#000" x="125.15151515151516" y="355.4545454545455" width="11.615151515151515" height="11.615151515151515"></rect><rect shape-rendering="optimizeSpeed" fill="#000" x="148.1818181818182" y="355.4545454545455" width="11.615151515151515" height="11.615151515151515"></rect><rect shape-rendering="optimizeSpeed" fill="#000" x="171.21212121212122" y="355.4545454545455" width="11.615151515151515" height="11.615151515151515"></rect><rect shape-rendering="optimizeSpeed" fill="#000" x="194.24242424242425" y="355.4545454545455" width="11.615151515151515" height="11.615151515151515"></rect><rect shape-rendering="optimizeSpeed" fill="#000" x="263.33333333333337" y="355.4545454545455" width="11.615151515151515" height="11.615151515151515"></rect><rect shape-rendering="optimizeSpeed" fill="#000" x="274.8484848484849" y="355.4545454545455" width="11.615151515151515" height="11.615151515151515"></rect><rect shape-rendering="optimizeSpeed" fill="#000" x="297.8787878787879" y="355.4545454545455" width="11.615151515151515" height="11.615151515151515"></rect><rect shape-rendering="optimizeSpeed" fill="#000" x="332.42424242424244" y="355.4545454545455" width="11.615151515151515" height="11.615151515151515"></rect><rect shape-rendering="optimizeSpeed" fill="#000" x="343.93939393939394" y="355.4545454545455" width="11.615151515151515" height="11.615151515151515"></rect><rect shape-rendering="optimizeSpeed" fill="#000" x="366.969696969697" y="355.4545454545455" width="11.615151515151515" height="11.615151515151515"></rect><rect shape-rendering="optimizeSpeed" fill="#000" x="378.4848484848485" y="355.4545454545455" width="11.615151515151515" height="11.615151515151515"></rect><rect shape-rendering="optimizeSpeed" fill="#000" x="10" y="366.969696969697" width="11.615151515151515" height="11.615151515151515"></rect><rect shape-rendering="optimizeSpeed" fill="#000" x="79.0909090909091" y="366.969696969697" width="11.615151515151515" height="11.615151515151515"></rect><rect shape-rendering="optimizeSpeed" fill="#000" x="102.12121212121212" y="366.969696969697" width="11.615151515151515" height="11.615151515151515"></rect><rect shape-rendering="optimizeSpeed" fill="#000" x="113.63636363636364" y="366.969696969697" width="11.615151515151515" height="11.615151515151515"></rect><rect shape-rendering="optimizeSpeed" fill="#000" x="136.66666666666669" y="366.969696969697" width="11.615151515151515" height="11.615151515151515"></rect><rect shape-rendering="optimizeSpeed" fill="#000" x="171.21212121212122" y="366.969696969697" width="11.615151515151515" height="11.615151515151515"></rect><rect shape-rendering="optimizeSpeed" fill="#000" x="182.72727272727275" y="366.969696969697" width="11.615151515151515" height="11.615151515151515"></rect><rect shape-rendering="optimizeSpeed" fill="#000" x="205.75757575757575" y="366.969696969697" width="11.615151515151515" height="11.615151515151515"></rect><rect shape-rendering="optimizeSpeed" fill="#000" x="217.27272727272728" y="366.969696969697" width="11.615151515151515" height="11.615151515151515"></rect><rect shape-rendering="optimizeSpeed" fill="#000" x="240.3030303030303" y="366.969696969697" width="11.615151515151515" height="11.615151515151515"></rect><rect shape-rendering="optimizeSpeed" fill="#000" x="251.8181818181818" y="366.969696969697" width="11.615151515151515" height="11.615151515151515"></rect><rect shape-rendering="optimizeSpeed" fill="#000" x="274.8484848484849" y="366.969696969697" width="11.615151515151515" height="11.615151515151515"></rect><rect shape-rendering="optimizeSpeed" fill="#000" x="286.3636363636364" y="366.969696969697" width="11.615151515151515" height="11.615151515151515"></rect><rect shape-rendering="optimizeSpeed" fill="#000" x="10" y="378.4848484848485" width="11.615151515151515" height="11.615151515151515"></rect><rect shape-rendering="optimizeSpeed" fill="#000" x="21.515151515151516" y="378.4848484848485" width="11.615151515151515" height="11.615151515151515"></rect><rect shape-rendering="optimizeSpeed" fill="#000" x="33.03030303030303" y="378.4848484848485" width="11.615151515151515" height="11.615151515151515"></rect><rect shape-rendering="optimizeSpeed" fill="#000" x="44.54545454545455" y="378.4848484848485" width="11.615151515151515" height="11.615151515151515"></rect><rect shape-rendering="optimizeSpeed" fill="#000" x="56.06060606060606" y="378.4848484848485" width="11.615151515151515" height="11.615151515151515"></rect><rect shape-rendering="optimizeSpeed" fill="#000" x="67.57575757575758" y="378.4848484848485" width="11.615151515151515" height="11.615151515151515"></rect><rect shape-rendering="optimizeSpeed" fill="#000" x="79.0909090909091" y="378.4848484848485" width="11.615151515151515" height="11.615151515151515"></rect><rect shape-rendering="optimizeSpeed" fill="#000" x="102.12121212121212" y="378.4848484848485" width="11.615151515151515" height="11.615151515151515"></rect><rect shape-rendering="optimizeSpeed" fill="#000" x="113.63636363636364" y="378.4848484848485" width="11.615151515151515" height="11.615151515151515"></rect><rect shape-rendering="optimizeSpeed" fill="#000" x="125.15151515151516" y="378.4848484848485" width="11.615151515151515" height="11.615151515151515"></rect><rect shape-rendering="optimizeSpeed" fill="#000" x="159.6969696969697" y="378.4848484848485" width="11.615151515151515" height="11.615151515151515"></rect><rect shape-rendering="optimizeSpeed" fill="#000" x="217.27272727272728" y="378.4848484848485" width="11.615151515151515" height="11.615151515151515"></rect><rect shape-rendering="optimizeSpeed" fill="#000" x="228.7878787878788" y="378.4848484848485" width="11.615151515151515" height="11.615151515151515"></rect><rect shape-rendering="optimizeSpeed" fill="#000" x="251.8181818181818" y="378.4848484848485" width="11.615151515151515" height="11.615151515151515"></rect><rect shape-rendering="optimizeSpeed" fill="#000" x="263.33333333333337" y="378.4848484848485" width="11.615151515151515" height="11.615151515151515"></rect><rect shape-rendering="optimizeSpeed" fill="#000" x="286.3636363636364" y="378.4848484848485" width="11.615151515151515" height="11.615151515151515"></rect><rect shape-rendering="optimizeSpeed" fill="#000" x="297.8787878787879" y="378.4848484848485" width="11.615151515151515" height="11.615151515151515"></rect><rect shape-rendering="optimizeSpeed" fill="#000" x="309.3939393939394" y="378.4848484848485" width="11.615151515151515" height="11.615151515151515"></rect><rect shape-rendering="optimizeSpeed" fill="#000" x="320.90909090909093" y="378.4848484848485" width="11.615151515151515" height="11.615151515151515"></rect><rect shape-rendering="optimizeSpeed" fill="#000" x="332.42424242424244" y="378.4848484848485" width="11.615151515151515" height="11.615151515151515"></rect><rect shape-rendering="optimizeSpeed" fill="#000" x="366.969696969697" y="378.4848484848485" width="11.615151515151515" height="11.615151515151515"></rect></svg></g></svg>